<svg width="80" height="80" viewBox="0 0 80 80" fill="none" xmlns="http://www.w3.org/2000/svg">
<path d="M12.48 74.6C16.5669 74.6 19.88 71.287 19.88 67.2C19.88 63.1131 16.5669 59.8 12.48 59.8C8.39309 59.8 5.08 63.1131 5.08 67.2C5.08 71.287 8.39309 74.6 12.48 74.6Z" fill="black"/>
<path d="M6 32.8C7.12 32.72 8.24 32.64 9.4 32.64C30.28 32.64 47.24 49.48 47.24 70.28C47.24 71.56 47.16 72.76 47.04 74" stroke="black" stroke-width="4.4"/>
<path d="M6 10.08C7.12 10.04 8.24 10 9.4 10C42.88 10 70 36.96 70 70.28C70 71.56 69.96 72.76 69.88 74" stroke="black" stroke-width="4.4"/>
</svg>
